HIERARCHY
ROOT pelvis
{
  OFFSET 0 100 0
  CHANNELS 6 Xposition Yposition Zposition Zrotation Xrotation Yrotation
  JOINT pelvis_right_femur
  {
    OFFSET -10.78128 -3.44521 -0.5502486
    CHANNELS 3 Zrotation Xrotation Yrotation
    JOINT right_femur_tibia
    {
      OFFSET -0.8047443 -44.0398 -0.1307829
      CHANNELS 3 Zrotation Xrotation Yrotation
      JOINT right_tibia_foot
      {
        OFFSET 3.006224 -47.83518 -5
        CHANNELS 3 Zrotation Xrotation Yrotation
        End Site
        {
          OFFSET 0 -5 15
        }
      }
    }
  }
  JOINT pelvis_left_femur
  {
    OFFSET 10.78128 -3.44521 -0.5502486
    CHANNELS 3 Zrotation Xrotation Yrotation
    JOINT left_femur_tibia
    {
      OFFSET 0.8047443 -44.0398 -0.1307829
      CHANNELS 3 Zrotation Xrotation Yrotation
      JOINT left_tibia_foot
      {
        OFFSET -4.370144 -48.10324 -4.275266
        CHANNELS 3 Zrotation Xrotation Yrotation
        End Site
        {
          OFFSET 0 -5 15
        }
      }
    }
  }
  JOINT pelvis_spine1
  {
    OFFSET 0 6.468898 -3.129235
    CHANNELS 3 Zrotation Xrotation Yrotation
    JOINT spine1
    {
      OFFSET 0 23.15396 4.99043
      CHANNELS 3 Zrotation Xrotation Yrotation
      JOINT spine2
      {
        OFFSET 0 20.79997 -5.064912
        CHANNELS 3 Zrotation Xrotation Yrotation
        JOINT neck
        {
          OFFSET 0 14.38658 9.616178
          CHANNELS 3 Zrotation Xrotation Yrotation
          End Site
          {
            OFFSET 0 20 0
          }
        }
      }
      JOINT right_manubrium
      {
        OFFSET -5.722621 16.35077 3.967754
        CHANNELS 3 Zrotation Xrotation Yrotation
        JOINT right_clavicle
        {
          OFFSET -13.16364 1.694482 -4.693211
          CHANNELS 3 Zrotation Xrotation Yrotation
          JOINT right_humerus
          {
            OFFSET -28.5034 -0.3100689 -2.792744
            CHANNELS 3 Zrotation Xrotation Yrotation
            JOINT right_radius
            {
              OFFSET -25.15693 0.02248979 -1.271978
              CHANNELS 3 Zrotation Xrotation Yrotation
              End Site
              {
                OFFSET -15 0 0
              }
            }
          }
        }
      }
      JOINT left_manubrium
      {
        OFFSET 5.722621 16.35077 3.967754
        CHANNELS 3 Zrotation Xrotation Yrotation
        JOINT left_clavicle
        {
          OFFSET 13.16364 1.694482 -4.693211
          CHANNELS 3 Zrotation Xrotation Yrotation
          JOINT left_humerus
          {
            OFFSET 29.39168 -1.063119 -2.237045
            CHANNELS 3 Zrotation Xrotation Yrotation
            JOINT left_radius
            {
              OFFSET 24.59957 -0.9528479 0.9047498
              CHANNELS 3 Zrotation Xrotation Yrotation
              End Site
              {
                OFFSET 15 -0 -0
              }
            }
          }
        }
      }
    }
  }
}
MOTION
Frames: 17
Frame Time: 0.0416666666667
0 103.5113 0 1.103655 0.1594373 -0.06924225 3.764959 -17.1007 10.483 -0 38.18331 -0 -5.31669 -18.17219 -3.422297 -7.582276 8.630288 -23.12895 -0 6.94581 -0 14.60454 -13.78589 29.00508 -4.340814 -3.983578 5.007611 3.107089 10.09026 -7.819289 1.760231 21.78353 6.068798 2.343941 -25.10856 9.946752 6.725974 -19.9567 11.87759 84.47561 37.49258 -16.84038 -0 0 16.9816 -6.325975 8.750747 4.481777 5.666039 -18.6909 -0.5834372 -92.31462 20.72898 20.09857 0 0 -12.61991 15.57627 15.02265 -4.594862
0.3325641 104.4263 1.511754 0.9778452 0.3179693 -0.1355656 4.043599 -18.36348 10.24865 -0 37.27166 -0 -5.396636 -17.19019 -3.229237 -7.488284 8.855554 -22.76669 -0 6.538969 -0 14.43136 -14.24279 28.80532 -4.193691 -3.814517 5.024167 3.052471 10.1422 -7.83346 1.725239 21.63332 6.156505 2.494313 -25.17408 9.8697 6.66078 -19.98484 11.87236 84.68226 37.4612 -17.10696 -0 0 16.79494 -6.453603 8.705204 4.463636 5.92732 -19.03248 -0.6833721 -92.09279 20.60423 19.9113 0 0 -13.49601 15.70593 14.83827 -4.615205
0.6796907 105.1001 3.406857 0.6487041 0.7374284 -0.1828396 4.738382 -21.98848 9.330737 -0 34.06804 -0 -5.622821 -14.22443 -2.615002 -7.218279 9.598989 -21.53849 -0 5.44258 -0 13.82912 -15.63673 27.98376 -3.785727 -3.327761 5.022943 2.906897 10.28756 -7.878689 1.610958 21.2449 6.392892 2.887395 -25.30156 9.617415 6.3598 -20.02185 11.84624 85.38632 37.12039 -17.95988 -0 0 16.09197 -7.041329 8.589303 4.538897 6.652588 -20.07553 -1.039282 -91.31096 20.18933 19.18239 0 0 -16.18675 16.00646 14.28736 -4.639784
1.026824 105.5523 5.667389 0.374576 1.205936 -0.2039761 5.347747 -25.12428 8.546696 -0 30.5803 -0 -5.704608 -11.88349 -2.126445 -7.012116 10.36847 -20.45076 -0 4.737615 -0 13.1741 -16.94661 27.16754 -3.452065 -2.960856 5.025508 2.84043 10.3342 -7.946678 1.526532 20.92708 6.566539 3.151658 -25.45727 9.440259 6.01484 -20.00564 11.77149 86.07783 36.70675 -18.84734 -0 0 15.39709 -7.4478 8.451628 4.585506 7.2301 -20.94394 -1.299551 -90.70082 20.06409 18.57948 0 0 -18.60717 15.96748 13.83089 -4.318683
1.365336 105.7767 8.370387 0.125228 1.737917 -0.1827598 5.905994 -28.30108 7.600013 -0 26.34363 -0 -5.756017 -9.485203 -1.607025 -6.829199 11.31576 -19.19624 -0 4.317133 -0 12.42704 -18.31518 26.11944 -3.140648 -2.628504 4.983317 2.819271 10.35792 -8.048331 1.434996 20.62544 6.709069 3.355623 -25.58756 9.254172 5.575848 -19.9162 11.66261 86.88362 36.18384 -19.86244 -0 0 14.53421 -7.916149 8.303285 4.691313 7.753174 -21.83189 -1.577229 -89.96543 19.90392 17.81441 0 0 -21.20383 15.82621 13.28156 -3.949676
1.682568 105.7956 11.57663 -0.0998613 2.259421 -0.09232576 6.323981 -31.21494 6.474417 -0 21.75564 -0 -5.821035 -7.150169 -1.11191 -6.66743 12.45858 -17.84263 -0 4.34311 -0 11.47046 -19.62549 24.76711 -2.855264 -2.361407 4.843331 2.845877 10.34416 -8.170916 1.339185 20.41042 6.821498 3.461006 -25.66616 9.094471 5.038412 -19.71987 11.52481 87.81977 35.49429 -20.98893 -0 0 13.44503 -8.476723 8.169332 4.896606 8.109564 -22.67897 -1.89882 -89.14678 19.87456 16.93674 0 0 -23.81856 15.4225 12.75701 -3.342752
1.966232 105.6592 15.35514 -0.3018618 2.726612 0.09882952 6.553131 -33.65355 5.143606 -0 17.07717 -0 -5.956935 -4.916242 -0.6637806 -6.534748 13.80515 -16.38648 -0 5.03166 -0 10.28691 -20.71103 23.05435 -2.589205 -2.191957 4.573585 2.921273 10.30834 -8.313477 1.236518 20.31349 6.894351 3.440971 -25.65886 8.967757 4.39828 -19.39264 11.36739 88.90326 34.61432 -22.20332 -0 0 12.08131 -9.147668 8.052759 5.226803 8.233137 -23.45794 -2.283329 -88.21598 19.92416 15.91894 0 0 -26.34084 14.79341 12.24537 -2.566831
2.205436 105.4592 19.76094 -0.5013671 3.086902 0.4205697 6.605431 -35.30209 3.711645 -0 12.8315 -0 -6.232242 -2.938158 -0.332894 -6.428464 15.29452 -14.89454 -0 6.696625 -0 8.860224 -21.31377 21.00096 -2.316099 -2.163669 4.160698 3.040516 10.26054 -8.466111 1.134991 20.36917 6.92081 3.26817 -25.54903 8.903768 3.674282 -18.9213 11.20375 90.12841 33.54601 -23.45727 -0 0 10.43223 -9.87501 7.959604 5.669131 8.048887 -24.1108 -2.724019 -87.22448 20.07207 14.82494 0 0 -28.55004 13.9584 11.7781 -1.637044
2.394439 105.3361 24.81704 -0.7370179 3.287083 0.8851788 6.603959 -35.82576 2.442474 -0 9.74118 -0 -6.729112 -1.416491 -0.2114299 -6.326239 16.74313 -13.47211 -0 9.736475 -0 7.247648 -21.08845 18.75193 -1.981582 -2.314093 3.638095 3.180118 10.22885 -8.610914 1.047733 20.58067 6.899858 2.942299 -25.33479 8.928761 2.922982 -18.32586 11.058 91.45337 32.36902 -24.66667 -0 0 8.565116 -10.54008 7.904867 6.159043 7.524447 -24.57747 -3.180973 -86.27898 20.29848 13.79718 0 0 -30.16826 13.02148 11.3734 -0.639537
2.536875 105.4684 30.48701 -1.063688 3.267143 1.463655 6.766326 -34.96912 1.7257 -0 8.586962 -0 -7.522671 -0.5487271 -0.3908861 -6.163247 17.78037 -12.25714 -0 14.55008 -0 5.553148 -19.70236 16.58407 -1.499521 -2.634068 3.10915 3.284892 10.25864 -8.710842 0.992842 20.90586 6.847163 2.51522 -25.03971 9.054191 2.239428 -17.68024 10.96526 92.78498 31.24796 -25.70856 -0 0 6.664335 -10.99911 7.936144 6.585408 6.705826 -24.81564 -3.587074 -85.55928 20.58782 13.09047 0 0 -30.92558 12.12822 11.06572 0.3418747
2.648417 106.0294 36.65184 -1.511809 2.951167 2.061251 7.251682 -32.67023 1.851163 -0 9.739249 -0 -8.623459 -0.4478258 -0.8965053 -5.840059 17.84136 -11.35774 -0 21.35591 -0 3.889027 -17.03386 14.81902 -0.7912494 -3.019221 2.748748 3.271516 10.40739 -8.706273 0.986005 21.25867 6.79039 2.095497 -24.70481 9.248602 1.72147 -17.12015 10.96631 93.9737 30.38608 -26.42348 -0 0 5.040219 -11.19423 8.139706 6.847088 5.73351 -24.82343 -3.884811 -85.2678 20.91851 13.01707 0 0 -30.68924 11.40343 10.90136 1.27411
2.753016 107.1185 43.1054 -2.014613 2.247053 2.517396 7.964672 -29.08194 2.726327 -0 12.59517 -0 -9.900186 -1.114801 -1.621559 -5.282949 16.30328 -10.77179 -0 29.939 -0 2.351254 -13.39598 13.66636 0.1175386 -3.25382 2.743518 3.066172 10.7166 -8.525108 1.03444 21.55521 6.738025 1.798658 -24.3605 9.425797 1.402254 -16.80676 11.09149 94.83255 29.9247 -26.62231 -0 0 4.060553 -11.26085 8.600331 6.94686 4.786586 -24.62087 -4.077726 -85.52527 21.24429 13.79749 0 0 -29.54686 10.85135 10.9136 2.209142
2.869844 108.7055 49.58489 -2.369271 1.086629 2.661568 8.544129 -24.46866 3.845901 -0 15.5422 -0 -11.06491 -2.483462 -2.334332 -4.524335 12.78379 -10.36142 -0 39.43732 -0 1.083724 -9.564425 13.13761 1.004447 -3.091375 3.181838 2.659534 11.17304 -8.11225 1.135363 21.77552 6.640266 1.661968 -23.98872 9.471441 1.212365 -16.85053 11.33737 95.18901 29.8821 -26.11162 -0 0 4.006231 -11.48433 9.315949 7.035709 3.983073 -24.19839 -4.23414 -86.26051 21.4583 15.38264 0 0 -27.75724 10.34141 11.06525 3.202207
3.000376 110.6289 55.8382 -2.328447 -0.4905464 2.420005 8.602947 -19.09256 4.618539 -0 16.8645 -0 -11.78833 -4.442354 -2.79067 -3.700324 7.424811 -9.945766 -0 48.3159 -0 0.3085614 -6.462943 13.1082 1.508677 -2.423057 3.98715 2.121449 11.68777 -7.4632 1.275091 21.96864 6.403615 1.613364 -23.5186 9.302198 1.039444 -17.25669 11.65254 94.93901 30.19619 -24.75657 -0 0 4.943912 -12.08644 10.1592 7.330055 3.344471 -23.50938 -4.409328 -87.21023 21.42357 17.4293 0 0 -25.62341 9.723975 11.23128 4.193013
3.134717 112.6472 61.70365 -1.785933 -2.277641 1.888928 8.00374 -13.21277 4.730093 -0 15.90906 -0 -11.87234 -6.772585 -2.86343 -2.946663 0.9082994 -9.425779 -0 54.67426 -0 0.1606234 -4.691636 13.43271 1.373285 -1.396617 4.96588 1.550739 12.11898 -6.638727 1.42551 22.18478 5.974207 1.543372 -22.88111 8.911592 0.8377391 -17.94862 11.95369 94.05806 30.77221 -22.55745 -0 0 6.71669 -13.07756 10.97667 7.974202 2.8668 -22.55088 -4.567418 -88.07781 21.09919 19.50024 0 0 -23.43396 8.942995 11.30417 5.045137
3.275861 114.5101 67.15652 -0.8787183 -3.944174 1.281535 6.933617 -7.159148 4.211383 -0 13.37832 -0 -11.34295 -9.13758 -2.587072 -2.300467 -5.824446 -8.808903 -0 56.89775 -0 0.4838603 -4.277584 13.99394 0.6577708 -0.3509619 5.901017 1.015785 12.33027 -5.750121 1.54985 22.42064 5.402861 1.398237 -22.07946 8.370772 0.6614989 -18.83059 12.16537 92.58225 31.45047 -19.67543 -0 0 9.038531 -14.34226 11.74185 8.991681 2.586358 -21.4359 -4.60284 -88.72646 20.63318 21.30412 0 0 -21.44783 8.023087 11.34694 5.723687
3.452678 116.0195 72.29082 0.0829135 -5.173171 0.7898495 5.764817 -1.343118 3.263803 -0 10.61867 -0 -10.42422 -11.2291 -2.112258 -1.684489 -11.93059 -8.148875 -0 54.3176 -0 0.8736935 -4.790307 14.68502 -0.2907969 0.3849277 6.604846 0.5412602 12.24687 -4.921274 1.621182 22.6358 4.820841 1.201136 -21.20164 7.793129 0.5973908 -19.81702 12.24882 90.60819 32.00142 -16.38341 -0 0 11.60286 -15.80463 12.57301 10.33273 2.555351 -20.35297 -4.431219 -89.22682 20.29112 22.76019 0 0 -19.81086 7.01198 11.60109 6.353868
